<svg xmlns="http://www.w3.org/2000/svg" id="Layer_1" aria-label="DFweb logo" data-name="Layer 1" viewBox="0 0 238.48 83.86"><title>Dfweb Logo</title><g id="Layer_1-2" data-name="Layer 1-2"><path fill="#145684" d="M20.5,29.31,46.82,3a22.05,22.05,0,0,1,0,31.19h0L20.5,60.5a22.06,22.06,0,0,1,0-31.19Z" aria-label="Logo for DFweb" transform="translate(-14.02 -2.98)"/><path fill="#2fb99a" d="M46.81,55.63l-8.49-8.44L20.48,29.33a22,22,0,0,0,0,31.18h0L46.81,86.84a22,22,0,0,0,0-31.18h0Z" aria-label="Logo for DFweb" transform="translate(-14.02 -2.98)"/><path fill="#2fb99a" d="M100,29.31,73.65,3a22.06,22.06,0,0,0,0,31.19h0L100,60.5a22.05,22.05,0,0,0,0-31.19Z" aria-label="Logo for DFweb" transform="translate(-14.02 -2.98)"/><path fill="#145684" d="M73.67,55.63l8.46-8.46L100,29.33a22,22,0,0,1,0,31.18h0L73.65,86.84a22,22,0,0,1,0-31.18h0Z" aria-label="Logo for DFweb" transform="translate(-14.02 -2.98)"/><path fill="#fff" d="M171.11,41.56a10.62,10.62,0,0,1-7,9.85,10.26,10.26,0,0,1-3.3.57h-8V31.16h8a9.78,9.78,0,0,1,5.43,1.63A10.5,10.5,0,0,1,170.05,37,10.18,10.18,0,0,1,171.11,41.56Zm-5.61,0a6.07,6.07,0,0,0-1.2-3.76,5.59,5.59,0,0,0-4.79-2.12h-1.23V47.46h1.23a5.62,5.62,0,0,0,4.79-2.12A6.11,6.11,0,0,0,165.5,41.56Z" aria-label="Logo for DFweb" transform="translate(-14.02 -2.98)"/><path fill="#fff" d="M186.49,35.68H180v3.55h5.94v4.5H180V52h-5.4V31.16H186.5Z" aria-label="Logo for DFweb" transform="translate(-14.02 -2.98)"/><path fill="#fff" d="M219.19,31.16,212.55,52H207l-3.79-12.06-4,12.06h-5.5l-6.21-20.82h5.66l3.6,13.45,4.42-13.45h4.31l4.1,13.45,3.93-13.45Z" aria-label="Logo for DFweb" transform="translate(-14.02 -2.98)"/><path fill="#fff" d="M233.22,52H221.38V31.16h11.84v4.5h-6.43v3.55h6.08v4.5h-6.08v3.72h6.43Z" aria-label="Logo for DFweb" transform="translate(-14.02 -2.98)"/><path fill="#fff" d="M252.5,46.06a5.47,5.47,0,0,1-1.35,3.8Q249.22,52,245.3,52h-8.65V31.16h8q5.85,0,5.85,5.43a5.22,5.22,0,0,1-.64,2.73,4.39,4.39,0,0,1-1.64,1.59,4.93,4.93,0,0,1,3.4,2A6.05,6.05,0,0,1,252.5,46.06Zm-7-8.75a1.81,1.81,0,0,0-1.27-1.88,4.21,4.21,0,0,0-1.22-.15h-1v4h1a2.54,2.54,0,0,0,2-.69A1.91,1.91,0,0,0,245.54,37.31Zm1.54,8.38a2,2,0,0,0-1.87-2.13,13.73,13.73,0,0,0-2-.09h-1.11v4.39h1.2a6.06,6.06,0,0,0,2.89-.49A1.8,1.8,0,0,0,247.08,45.69Z" aria-label="Logo for DFweb" transform="translate(-14.02 -2.98)"/></g></svg>