<?xml version="1.0" encoding="UTF-8"?>
<svg xmlns="http://www.w3.org/2000/svg" xmlns:xlink="http://www.w3.org/1999/xlink" width="150px" height="45px" viewBox="0 0 150 45" version="1.1" aria-label="DFweb logo" className="h-10 ml-4 lg:p-2 xl:p-2 lg:h-16 xl:h-16 lg:ml-2 xl:ml-2">
<g id="surface1">
<path style=" stroke:none;fill-rule:nonzero;fill:rgb(7.843137%,33.72549%,51.764706%);fill-opacity:1;" d="M 4.074219 14.160156 L 20.628906 0.09375 C 26.050781 4.699219 26.050781 12.164062 20.628906 16.769531 L 4.074219 30.835938 C -1.339844 26.230469 -1.339844 18.765625 4.074219 14.160156 Z M 4.074219 14.160156 "/>
<path style=" stroke:none;fill-rule:nonzero;fill:rgb(18.431373%,72.54902%,60.392157%);fill-opacity:1;" d="M 20.625 28.230469 L 15.285156 23.71875 L 4.0625 14.171875 C 1.457031 16.378906 -0.0117188 19.378906 -0.0117188 22.503906 C -0.0117188 25.632812 1.457031 28.632812 4.0625 30.839844 L 20.625 44.917969 C 23.230469 42.710938 24.699219 39.710938 24.699219 36.582031 C 24.699219 33.453125 23.230469 30.453125 20.625 28.246094 Z M 20.625 28.230469 "/>
<path style=" stroke:none;fill-rule:nonzero;fill:rgb(18.431373%,72.54902%,60.392157%);fill-opacity:1;" d="M 54.078125 14.160156 L 37.507812 0.09375 C 32.089844 4.699219 32.089844 12.164062 37.507812 16.769531 L 54.078125 30.835938 C 59.5 26.230469 59.5 18.765625 54.078125 14.160156 Z M 54.078125 14.160156 "/>
<path style=" stroke:none;fill-rule:nonzero;fill:rgb(7.843137%,33.72549%,51.764706%);fill-opacity:1;" d="M 37.519531 28.230469 L 42.839844 23.707031 L 54.078125 14.171875 C 56.6875 16.378906 58.152344 19.378906 58.152344 22.503906 C 58.152344 25.632812 56.6875 28.632812 54.078125 30.839844 L 37.507812 44.917969 C 34.898438 42.710938 33.433594 39.710938 33.433594 36.582031 C 33.433594 33.453125 34.898438 30.453125 37.507812 28.246094 Z M 37.519531 28.230469 "/>
<path style=" stroke:none;fill-rule:nonzero;fill:rgb(100%,100%,100%);fill-opacity:1;" d="M 98.808594 20.707031 C 98.773438 23.070312 97.019531 25.167969 94.402344 25.976562 C 93.738281 26.171875 93.035156 26.277344 92.328125 26.28125 L 87.296875 26.28125 L 87.296875 15.148438 L 92.328125 15.148438 C 93.542969 15.144531 94.730469 15.449219 95.742188 16.019531 C 96.769531 16.570312 97.601562 17.347656 98.140625 18.269531 C 98.582031 19.027344 98.8125 19.863281 98.808594 20.707031 Z M 95.277344 20.707031 C 95.296875 19.984375 95.03125 19.277344 94.523438 18.699219 C 93.800781 17.917969 92.675781 17.496094 91.511719 17.566406 L 90.738281 17.566406 L 90.738281 23.863281 L 91.511719 23.863281 C 92.671875 23.929688 93.800781 23.507812 94.523438 22.730469 C 95.03125 22.144531 95.296875 21.433594 95.277344 20.707031 Z M 95.277344 20.707031 "/>
<path style=" stroke:none;fill-rule:nonzero;fill:rgb(100%,100%,100%);fill-opacity:1;" d="M 108.480469 17.566406 L 104.398438 17.566406 L 104.398438 19.464844 L 108.136719 19.464844 L 108.136719 21.867188 L 104.398438 21.867188 L 104.398438 26.289062 L 101.003906 26.289062 L 101.003906 15.148438 L 108.488281 15.148438 Z M 108.480469 17.566406 "/>
<path style=" stroke:none;fill-rule:nonzero;fill:rgb(100%,100%,100%);fill-opacity:1;" d="M 129.046875 15.148438 L 124.871094 26.289062 L 121.382812 26.289062 L 118.996094 19.84375 L 116.480469 26.289062 L 113.023438 26.289062 L 109.117188 15.160156 L 112.675781 15.160156 L 114.941406 22.351562 L 117.71875 15.160156 L 120.429688 15.160156 L 123.011719 22.351562 L 125.480469 15.160156 Z M 129.046875 15.148438 "/>
<path style=" stroke:none;fill-rule:nonzero;fill:rgb(100%,100%,100%);fill-opacity:1;" d="M 137.875 26.289062 L 130.425781 26.289062 L 130.425781 15.148438 L 137.875 15.148438 L 137.875 17.554688 L 133.828125 17.554688 L 133.828125 19.453125 L 137.652344 19.453125 L 137.652344 21.859375 L 133.828125 21.859375 L 133.828125 23.847656 L 137.875 23.847656 Z M 137.875 26.289062 "/>
<path style=" stroke:none;fill-rule:nonzero;fill:rgb(100%,100%,100%);fill-opacity:1;" d="M 150 23.113281 C 150.03125 23.859375 149.726562 24.585938 149.152344 25.144531 C 148.339844 25.910156 147.113281 26.289062 145.472656 26.289062 L 140.03125 26.289062 L 140.03125 15.148438 L 145.0625 15.148438 C 147.515625 15.148438 148.742188 16.117188 148.742188 18.050781 C 148.765625 18.558594 148.628906 19.066406 148.339844 19.511719 C 148.089844 19.867188 147.734375 20.160156 147.308594 20.363281 C 148.164062 20.449219 148.941406 20.835938 149.445312 21.429688 C 149.808594 21.9375 150 22.519531 150 23.113281 Z M 145.597656 18.4375 C 145.640625 17.984375 145.308594 17.566406 144.796875 17.433594 C 144.546875 17.375 144.289062 17.347656 144.03125 17.351562 L 143.402344 17.351562 L 143.402344 19.488281 L 144.03125 19.488281 C 144.492188 19.527344 144.953125 19.394531 145.289062 19.121094 C 145.496094 18.9375 145.617188 18.691406 145.621094 18.4375 Z M 146.566406 22.917969 C 146.589844 22.632812 146.476562 22.355469 146.257812 22.140625 C 146.035156 21.925781 145.722656 21.796875 145.390625 21.777344 C 144.972656 21.734375 144.550781 21.71875 144.132812 21.730469 L 143.433594 21.730469 L 143.433594 24.078125 L 144.1875 24.078125 C 144.808594 24.117188 145.433594 24.027344 146.007812 23.816406 C 146.386719 23.636719 146.617188 23.289062 146.589844 22.917969 Z M 146.566406 22.917969 "/>
</g>
</svg>
